inDegrees=no
num_controls=7
num_derivatives=13
num_iterations=118
num_multipliers=7
num_parameters=0
num_slacks=7
num_states=26
objective=0.428738
objective_accelerations=0.053104
objective_balance=0.006912
objective_effort=0.032573
objective_height=0.335018
objective_ligament=0.001130
solver_duration=1517.747864
status=Solve_Succeeded
success=true
DataType=double
version=3
OpenSimVersion=4.5
endheader
time	/jointset/ground_pelvis/pelvis_tilt/value	/jointset/ground_pelvis/pelvis_tx/value	/jointset/ground_pelvis/pelvis_ty/value	/jointset/hip_l/hip_flexion_l/value	/jointset/hip_l/hip_adduction_l/value	/jointset/hip_l/hip_rotation_l/value	/jointset/back/lumbar_extension/value	/jointset/patellofemoral_l/patellar_flexion_l/value	/jointset/knee_l/knee_flexion_l/value	/jointset/knee_l/knee_adduction_l/value	/jointset/knee_l/knee_rotation_l/value	/jointset/ankle_l/ankle_angle_l/value	/jointset/subtalar_l/subtalar_angle_l/value	/jointset/ground_pelvis/pelvis_tilt/speed	/jointset/ground_pelvis/pelvis_tx/speed	/jointset/ground_pelvis/pelvis_ty/speed	/jointset/hip_l/hip_flexion_l/speed	/jointset/hip_l/hip_adduction_l/speed	/jointset/hip_l/hip_rotation_l/speed	/jointset/back/lumbar_extension/speed	/jointset/patellofemoral_l/patellar_flexion_l/speed	/jointset/knee_l/knee_flexion_l/speed	/jointset/knee_l/knee_adduction_l/speed	/jointset/knee_l/knee_rotation_l/speed	/jointset/ankle_l/ankle_angle_l/speed	/jointset/subtalar_l/subtalar_angle_l/speed	/forceset/tau_hip_flexion_l	/forceset/tau_hip_adduction_l	/forceset/tau_hip_rotation_l	/forceset/tau_knee_flexion_l	/forceset/tau_ankle_angle_l	/forceset/tau_subtalar_angle_l	/forceset/tau_lumbar_extension	lambda_cid13_p0	lambda_cid13_p1	lambda_cid13_p2	lambda_cid13_p3	lambda_cid13_p4	lambda_cid13_p5	lambda_cid14_p0	/jointset/ground_pelvis/pelvis_tilt/accel	/jointset/ground_pelvis/pelvis_tx/accel	/jointset/ground_pelvis/pelvis_ty/accel	/jointset/hip_l/hip_flexion_l/accel	/jointset/hip_l/hip_adduction_l/accel	/jointset/hip_l/hip_rotation_l/accel	/jointset/back/lumbar_extension/accel	/jointset/patellofemoral_l/patellar_flexion_l/accel	/jointset/knee_l/knee_flexion_l/accel	/jointset/knee_l/knee_adduction_l/accel	/jointset/knee_l/knee_rotation_l/accel	/jointset/ankle_l/ankle_angle_l/accel	/jointset/subtalar_l/subtalar_angle_l/accel	gamma_cid13_p0	gamma_cid13_p1	gamma_cid13_p2	gamma_cid13_p3	gamma_cid13_p4	gamma_cid13_p5	gamma_cid14_p0
0	-0.1568010670414256	0.05732191649167567	0.8978872509869218	0.3774924667018715	-0.2607315563119812	-0.2454771301083757	-0.01265067647494873	0.03223648243721432	0.03223648243721463	-0.1745329109846794	0.1482949661397827	-0.04231377076293093	-0.01117688274290439	0	0	0	0	0	0	0	0	0	0	0	0	0	0.14152824429849	-0.07672548530296217	-0.04700256928750737	-0.308025884748514	0.3297269644783887	-0.04235395759362625	-0.08480635689556426	64.56277619090153	2.496855731181642	4.445817436401216	-19.41496084583263	-586.8033186387195	-70.24170217008684	-38.27861155700698	-2.900882181278119	-1.623192742198907	-1.033756546845819	11.66911067518878	-1.430932073891015	3.567797681568603	-5.741833278569104	11.42246427810506	11.42246427810506	0.04008963853973603	0.4164767439134703	2.878965116642888	-0.7930080600163164	-2.847407112792366e-08	5.166540223134241e-08	1.21242608535078e-07	-8.900295032081409e-09	9.019490350179015e-08	-6.776457310133502e-08	-1.92734029345021e-08
0.01	-0.156939950324339	0.05724216553680601	0.8978368493679448	0.3780601870557845	-0.2608025725316949	-0.2452989858703862	-0.01293788517160144	0.03279456317911267	0.03279456317911886	-0.174532695981778	0.1483117423449835	-0.04217350019952294	-0.0112168488456929	-0.02763382908286491	-0.01584328186918372	-0.01004070496072433	0.1129659720137616	-0.01411366089466347	0.03551372540729162	-0.05697229202168287	0.1110837021359304	0.1110837021359496	6.775150305114731e-05	0.003288015907161079	0.02796689844180535	-0.00792659808810677	0.1359553806053536	-0.08668490951682506	-0.04592382707425253	-0.3020973457661815	0.3198117631136262	-0.02860573004787781	-0.08010931903964336	61.85393267549792	-2.734473463071984	4.976878270995568	-18.54153113725611	-588.2449977721369	-80.45547237304315	-38.29513993787577	-2.67321835136292	-1.548861323597279	-0.9832666065023195	11.02361814524835	-1.388173334902497	3.525874999692187	-5.604510067648999	10.87146009932568	10.87146009932794	-0.00614422572830301	0.2748648507542624	2.742468771762524	-0.7825144222123295	-7.294823907457109e-08	9.823558159740482e-08	1.777222346392149e-07	3.02558268216637e-08	-9.155494107972376e-08	-5.829058510061751e-08	-2.920848986811385e-08
0.02	-0.157350888913995	0.05700718868038069	0.8976872328721972	0.3797402226659906	-0.2610120434078849	-0.2447691613724473	-0.01378073336920729	0.03444750832597649	0.03444750832597641	-0.1745310558902441	0.1483593788765705	-0.04175617733893437	-0.01133408667716337	-0.05441106134862308	-0.03104518031113312	-0.01984297535411035	0.2224630512586597	-0.0276909312952674	0.07033605198989469	-0.1111279001906115	0.2189728809914074	0.2189728809914208	0.000285017729458033	0.006172065279796301	0.05541045943613757	-0.01545434573639285	0.1303825169122175	-0.09664433373068657	-0.04484508486106533	-0.2961688067838321	0.3098965617488679	-0.01485750250212603	-0.07541228118372631	59.23739089217561	-7.984992432644029	5.514463492735919	-17.89851826416893	-588.3261349265749	-90.54996857960064	-38.343830321929	-2.729562817856778	-1.494916056752035	-0.9860696333781578	10.97533212141606	-1.32365397507911	3.429517916630892	-5.178496508018251	10.78355962201439	10.78355962200938	0.06999258321087926	0.3356834370082986	2.774297627148272	-0.7132379720521789	-1.174224070212185e-07	1.448057609634672e-07	2.342018607433518e-07	6.941194867540881e-08	-2.733047856612377e-07	-4.88165970999e-08	-3.91435768017256e-08
0.03	-0.1580254860893918	0.05662327694638011	0.8974404761224499	0.3824988898386023	-0.2613542661983185	-0.2438950611364678	-0.01515177551404905	0.03716435249628672	0.037164352496285	-0.1745261248977343	0.1484346211638407	-0.04106678173495088	-0.01152426935942333	-0.08034809497027434	-0.0456403560318482	-0.02949316151467353	0.3287303613857993	-0.04064127522508772	0.1043135015092209	-0.16271781996038	0.3239281753883478	0.3239281753883289	0.0007374997358197654	0.008883180409302281	0.08239414875768004	-0.02249483490265453	0.1249846301714432	-0.09045785286817369	-0.04406628024715786	-0.2912557162691696	0.3046428379797893	-0.0177207462624489	-0.07095501016568589	57.44707822010754	-6.58118715309873	5.465615904031391	-17.24528036083454	-588.4562328539567	-86.8895001173623	-38.42279589343399	-2.501742197682062	-1.427282720537641	-0.9522665406001984	10.37141101322671	-1.263911138219817	3.356251641984016	-5.094833388867285	10.28135556508392	10.28135556508241	0.03837289354898915	0.2398132551902152	2.649219856959011	-0.6863995651944305	-1.430918569098886e-07	1.575731698169089e-07	2.641261165302952e-07	9.565333344881534e-08	-4.02557009726003e-07	-4.516822016726706e-08	-4.457632506943098e-08
0.04	-0.1589546473136772	0.05609632057701113	0.8970976628244564	0.3863040262234588	-0.2618226297353073	-0.2426863077708147	-0.01702783559207043	0.04091671785387374	0.040916717853874	-0.1745155697083205	0.1485371721432633	-0.04010978618329163	-0.01178224596860215	-0.1053238711264368	-0.05965410738481501	-0.03905428500341866	0.4317568937074907	-0.05291908060636153	0.1372666779245684	-0.2121314868265946	0.4260771184472903	0.4260771184472721	0.00140985711018742	0.01163380370954628	0.1089304489712939	-0.02901313112016769	0.1195867434306697	-0.08427137200566256	-0.04328747563322873	-0.2863426257545122	0.2993891142107091	-0.02058399002277415	-0.06649773914764294	55.74259898777515	-5.19087650127044	5.417171706223845	-16.81261174579807	-587.3429050230308	-83.1097484429485	-38.53002874570674	-2.537311324759034	-1.378631183202375	-0.9682570990145449	10.3271765603264	-1.189146265369815	3.224663295835153	-4.743245927307453	10.22228935441481	10.22228935441641	0.1139676568120477	0.3435850711559029	2.684819805562561	-0.608799382302481	-1.683735806530335e-07	1.696436143298842e-07	2.935028389086366e-07	1.21628434983452e-07	-5.307268086254746e-07	-4.163995892675957e-08	-4.991624161206611e-08
0.05	-0.1601291753837625	0.05543179438292971	0.8966593781936987	0.3911243397829872	-0.2624103999944701	-0.2411529948705027	-0.0193868234496849	0.04567680495492863	0.04567680495492957	-0.1744974615963835	0.1486673701612222	-0.03889009551526613	-0.01210293308133834	-0.1294208972358491	-0.07318541169721965	-0.04860986719338625	0.5317941723855963	-0.06452408107156518	0.1692468572360661	-0.2593129735995045	0.5254393471277601	0.5254393471277544	0.002208752614321415	0.01438075394200044	0.1348691893393738	-0.03505738037961692	0.1126858821115063	-0.08160653184019243	-0.04207585398681473	-0.2793369554838267	0.2891565519242928	-0.01838467401253943	-0.06109849830552207	52.60437547058906	-5.661452585014159	5.56631659774141	-15.11255725991292	-586.4065493093585	-82.94700318629762	-38.6629390767467	-2.321780180211661	-1.330497559511852	-0.9503998668532248	9.765236841950768	-1.129583297528807	3.162296296456165	-4.652633387773195	9.718056455851347	9.718056455852293	0.06245537865192875	0.2364528480576587	2.527615197446591	-0.5922593704074376	-1.861575035233137e-07	1.804365356286678e-07	3.209651173073069e-07	1.390430391537894e-07	-6.144599245452447e-07	-3.834106302616598e-08	-5.438822719584651e-08
0.06	-0.1615398501001769	0.05463393164487377	0.8961252995234682	0.3969296727933765	-0.2631109015303714	-0.2393043599675459	-0.02220703284212637	0.05141548770898725	0.05141548770898778	-0.174471443553116	0.148824278251257	-0.03741517463455668	-0.01248206702119728	-0.1525532003924381	-0.0863214161797176	-0.05821309289794913	0.6287607838796251	-0.07546533595409638	0.2003310784535282	-0.3043757937920328	0.6217962490477618	0.6217962490477634	0.002991843375968937	0.01697581812515386	0.1599764915080895	-0.0407024965447185	0.1057850207923429	-0.0789416916747233	-0.04086423234040896	-0.2723312852131365	0.2789239896378781	-0.01618535800230522	-0.05569925746340308	49.54190659801786	-6.144069200123947	5.715986703924155	-13.61312715645099	-584.3660096895011	-82.67887974921987	-38.81870782509773	-2.344366734194385	-1.299571217221028	-0.9777858019336017	9.713043123511028	-1.056397148835332	3.045471677028033	-4.319512611231142	9.621224002321197	9.621224002321743	0.1108067083147434	0.3132078612957558	2.518532165689708	-0.5289727634329527	-2.036257295147365e-07	1.911756664763275e-07	3.483467875384121e-07	1.560972013298406e-07	-6.963220222342905e-07	-3.505182461356877e-08	-5.882366831820144e-08
